<?xml version="1.0" encoding="utf-8"?>
<!-- Generator: Adobe Illustrator 19.0.1, SVG Export Plug-In . SVG Version: 6.00 Build 0)  -->
<svg version="1.1" id="Layer_1" xmlns="http://www.w3.org/2000/svg" xmlns:xlink="http://www.w3.org/1999/xlink" x="0px" y="0px"
	 width="28px" height="28px" viewBox="0 0 28 28" style="enable-background:new 0 0 28 28;" xml:space="preserve">
<g>
	<path d="M15.2,14.3V3.1c-1.9,1.8-2.6,3.8-2.6,6.5v3.5H8.9l-2.2,1.5h4.1l1.7-1.2v11.2c1.9-1.8,2.6-3.8,2.6-6.5v-3.5h3.6l2.2-1.5
		h-4.1L15.2,14.3z"/>
	<path d="M21.9,1.8c-0.8-0.3-1.6-0.4-2.3-0.4c-1.6,0-2.9,0.6-3.8,1.2l3.6,0.9L21.9,1.8z"/>
	<path d="M5.8,25.9c0.8,0.3,1.6,0.4,2.3,0.4c1.6,0,2.9-0.6,3.8-1.2l-3.6-0.9L5.8,25.9z"/>
</g>
</svg>
